<svg viewBox="0 0 400 300" xmlns="http://www.w3.org/2000/svg" role="img" aria-label="Sitio web y su código lado a lado"><rect width="400" height="300" fill="#efece6"/>
<rect x="48" y="46" width="212" height="176" rx="14" fill="#ffffff" stroke="#0a0a0a" stroke-width="2"/>
<line x1="48" y1="76" x2="260" y2="76" stroke="#0a0a0a" stroke-width="2"/>
<circle cx="66" cy="61" r="3.5" fill="#0a0a0a"/>
<circle cx="80" cy="61" r="3.5" fill="#0a0a0a"/>
<circle cx="94" cy="61" r="3.5" fill="#3B82F6"/>
<rect x="64" y="90" width="180" height="14" rx="7" fill="#0a0a0a" opacity="0.12"/>
<rect x="64" y="114" width="180" height="44" rx="8" fill="#3B82F6"/>
<rect x="80" y="130" width="90" height="6" rx="3" fill="#f7f5f1"/>
<rect x="80" y="142" width="60" height="5" rx="2.5" fill="#f7f5f1" opacity="0.6"/>
<rect x="64" y="168" width="86" height="38" rx="8" fill="#0a0a0a" opacity="0.12"/>
<rect x="158" y="168" width="86" height="38" rx="8" fill="#0a0a0a" opacity="0.12"/>
<rect x="240" y="120" width="120" height="118" rx="14" fill="#0a0a0a"/>
<rect x="232" y="112" width="120" height="118" rx="14" fill="#ffffff" stroke="#0a0a0a" stroke-width="2"/>
<path d="M254 132 l-9 8 l9 8 M272 132 l9 8 l-9 8" fill="none" stroke="#0a0a0a" stroke-width="2.5" stroke-linecap="round" stroke-linejoin="round"/>
<rect x="248" y="160" width="20" height="7" rx="3.5" fill="#3B82F6"/>
<rect x="274" y="160" width="58" height="7" rx="3.5" fill="#0a0a0a" opacity="0.18"/>
<rect x="260" y="176" width="46" height="7" rx="3.5" fill="#0a0a0a" opacity="0.18"/>
<rect x="260" y="192" width="66" height="7" rx="3.5" fill="#3B82F6" opacity="0.5"/>
<rect x="248" y="208" width="52" height="7" rx="3.5" fill="#0a0a0a" opacity="0.18"/>
<rect x="60" y="230" width="34" height="56" rx="8" fill="#ffffff" stroke="#0a0a0a" stroke-width="2"/>
<rect x="68" y="240" width="18" height="4" rx="2" fill="#3B82F6"/>
<rect x="68" y="250" width="18" height="4" rx="2" fill="#0a0a0a" opacity="0.18"/>
<line x1="71" y1="276" x2="83" y2="276" stroke="#0a0a0a" stroke-width="2" stroke-linecap="round"/>
<path d="M330 60 h14 M337 53 v14" stroke="#0a0a0a" stroke-width="2" stroke-linecap="round"/>
</svg>